<svg id="圖層_1" data-name="圖層 1" xmlns="http://www.w3.org/2000/svg" viewBox="0 0 423.38 387.4"><defs><style>.cls-1{fill:#70fd59;}</style></defs><title>icon</title><path class="cls-1" d="M404.78,342.45V284.37H250.47a62.87,62.87,0,0,0-7,4.12,48.48,48.48,0,0,0-15,17.05q-5.82,10.68-5.81,27.16,0,15,5.06,25.86a48.83,48.83,0,0,0,14,18,59.23,59.23,0,0,0,21,10.49,95.07,95.07,0,0,0,25.86,3.37,120.47,120.47,0,0,0,35.21-5.24,69.35,69.35,0,0,0,30-18.36,78.65,78.65,0,0,0,1.31,9.55,72.92,72.92,0,0,0,2.44,9.18h53.95q-3.75-6-5.25-18A202.23,202.23,0,0,1,404.78,342.45ZM351.57,310.6a102.42,102.42,0,0,1-.93,12,40.36,40.36,0,0,1-5.06,14.8,35.17,35.17,0,0,1-12.74,12.55q-8.62,5.25-24.36,5.24a66.78,66.78,0,0,1-12.36-1.12,30.11,30.11,0,0,1-10.49-3.93,20,20,0,0,1-7.12-7.68,25,25,0,0,1-2.62-12q0-7.5,2.62-12.37a24,24,0,0,1,6.93-8A34.89,34.89,0,0,1,295.56,305a95.74,95.74,0,0,1,11.8-3q6.36-1.12,12.74-1.87t12.17-1.88a84.82,84.82,0,0,0,10.87-2.81,23.81,23.81,0,0,0,8.43-4.68Z" transform="translate(-2 -3)"/><path class="cls-1" d="M143.88,284.37c.06,1.49.12,3,.12,4.5a101.88,101.88,0,0,1-2.62,23.23A61.79,61.79,0,0,1,133.14,332a43.15,43.15,0,0,1-14,13.68q-8.43,5.06-20.42,5.06a39.22,39.22,0,0,1-20.23-5.06A42.39,42.39,0,0,1,64.2,332,61.58,61.58,0,0,1,56,312.1a101.88,101.88,0,0,1-2.62-23.23c0-1.52.06-3,.12-4.5H2V385.53H52.58V360.8h.75a48.48,48.48,0,0,0,25.48,22.86q16.86,6.75,38.22,6.74a73.81,73.81,0,0,0,54.51-24.35q11.43-12.36,18.55-31.66t7.12-45.9c0-1.4,0-2.75-.07-4.12Z" transform="translate(-2 -3)"/><path class="cls-1" d="M55.2,3v97.42H56A56.79,56.79,0,0,1,82.37,78.5,89.43,89.43,0,0,1,117,71.57a73.81,73.81,0,0,1,54.51,24.35q11.43,12.36,18.55,31.66t7.12,45.9q0,26.61-7.12,45.9T171.54,251A73.91,73.91,0,0,1,117,275.39q-21.36,0-38.22-6.74a48.52,48.52,0,0,1-25.48-22.86h-.75v24.73H2V3Zm86.18,147.25a61.84,61.84,0,0,0-8.24-19.86,43.35,43.35,0,0,0-14-13.68q-8.43-5.05-20.42-5-11.62,0-20.23,5A42.58,42.58,0,0,0,64.2,130.39,61.64,61.64,0,0,0,56,150.25a103.46,103.46,0,0,0-2.62,23.6A101.75,101.75,0,0,0,56,197.08a61.54,61.54,0,0,0,8.25,19.86,42.48,42.48,0,0,0,14.24,13.68q8.61,5.06,20.23,5,12,0,20.42-5a43.25,43.25,0,0,0,14-13.68,61.75,61.75,0,0,0,8.24-19.86A101.75,101.75,0,0,0,144,173.85,103.46,103.46,0,0,0,141.38,150.25Z" transform="translate(-2 -3)"/><path class="cls-1" d="M224.93,173.85q0-23.22,7.12-42.15a88.58,88.58,0,0,1,51.71-52.83q18.35-7.31,41.21-7.3,36,0,61.07,18L405.9,66.69l13.86,12-20.23,22.86A91.21,91.21,0,0,1,418.64,133q6.74,18.36,6.74,40.84,0,23.24-7.12,42a90.88,90.88,0,0,1-20.23,32,88.08,88.08,0,0,1-31.66,20.42q-18.54,7.11-41.4,7.12-36.72,0-61.82-18.36L241,281.76l-13.86-11.62,22.48-25.47Q224.93,217.69,224.93,173.85Zm100-62.19q-13.49,0-22.48,5.43a43.12,43.12,0,0,0-14.43,14A58.38,58.38,0,0,0,280.38,151a116.09,116.09,0,0,0-2.24,22.85,106.37,106.37,0,0,0,1.31,16.86,65.33,65.33,0,0,0,4.31,15.36l72.31-82.42Q344.82,111.65,325,111.66ZM306.24,232.3A47.27,47.27,0,0,0,325,235.67q13.48,0,22.67-5.24a40.52,40.52,0,0,0,14.61-14.05,60.46,60.46,0,0,0,7.68-19.86,113.26,113.26,0,0,0,2.25-22.67,107,107,0,0,0-1.5-17.8,80,80,0,0,0-4.5-16.29l-73.06,83.17A35.94,35.94,0,0,0,306.24,232.3Z" transform="translate(-2 -3)"/></svg>