<svg id="圖層_1" data-name="圖層 1" xmlns="http://www.w3.org/2000/svg" xmlns:xlink="http://www.w3.org/1999/xlink" viewBox="0 0 658 658"><defs><style>.cls-1{fill:none;}.cls-2{clip-path:url(#clip-path);}.cls-3{fill:#70fd59;}</style><clipPath id="clip-path"><circle class="cls-1" cy="329" r="329"/></clipPath></defs><title>logo</title><g class="cls-2"><path class="cls-3" d="M393.83,684.38c-13.13-13.24-17-33.86-9.05-50.84A45.15,45.15,0,0,1,430,607.62a45.18,45.18,0,0,1,27.59,13c2.29,2.27,5.82-1.26,3.53-3.54a50.11,50.11,0,0,0-27.05-14,50.08,50.08,0,0,0-43.77,84.77c2.27,2.29,5.81-1.24,3.54-3.53Z"/><path class="cls-3" d="M524.86,553.35c13.14,13.23,17,33.85,9,50.83a45.12,45.12,0,0,1-45.2,25.93,45.22,45.22,0,0,1-27.6-13c-2.28-2.26-5.82,1.27-3.53,3.54a50.09,50.09,0,0,0,27.05,14,51,51,0,0,0,29.52-4,50.1,50.1,0,0,0,14.25-80.8c-2.27-2.29-5.81,1.25-3.54,3.54Z"/><path class="cls-3" d="M528.4,549.81c-13.14-13.23-17-33.86-9-50.83a45.14,45.14,0,0,1,45.21-25.93,45.21,45.21,0,0,1,27.59,13c2.28,2.27,5.82-1.26,3.53-3.53a50.09,50.09,0,0,0-27-14,51,51,0,0,0-29.52,4,50.1,50.1,0,0,0-14.25,80.8c2.27,2.28,5.81-1.25,3.54-3.54Z"/><path class="cls-3" d="M659.43,418.78c13.14,13.23,17,33.85,9.05,50.83a45.14,45.14,0,0,1-45.21,25.93,45.21,45.21,0,0,1-27.59-13c-2.28-2.27-5.82,1.26-3.53,3.53a50.06,50.06,0,0,0,27.05,14,51,51,0,0,0,29.52-4A50.1,50.1,0,0,0,663,415.24c-2.27-2.28-5.81,1.25-3.54,3.54Z"/><path class="cls-3" d="M663,415.24c-13.14-13.23-17-33.85-9.05-50.83a45.12,45.12,0,0,1,45.2-25.93,45.21,45.21,0,0,1,27.6,13c2.28,2.27,5.82-1.26,3.53-3.53a50.09,50.09,0,0,0-27-14,51,51,0,0,0-29.53,4,50.1,50.1,0,0,0-14.24,80.8c2.27,2.29,5.81-1.25,3.54-3.54Z"/><path class="cls-3" d="M203.6,696c-13.13-13.23-17-33.86-9-50.83a45.14,45.14,0,0,1,45.21-25.93,45.18,45.18,0,0,1,27.59,13c2.29,2.27,5.82-1.26,3.53-3.53a50.06,50.06,0,0,0-27-14,51,51,0,0,0-29.52,4,50.09,50.09,0,0,0-14.24,80.8c2.26,2.28,5.8-1.25,3.53-3.54Z"/><path class="cls-3" d="M334.63,565c13.14,13.23,17,33.86,9.05,50.83a45.12,45.12,0,0,1-45.2,25.93,45.21,45.21,0,0,1-27.6-13c-2.28-2.27-5.82,1.26-3.53,3.53a50.09,50.09,0,0,0,27,14,51,51,0,0,0,29.53-4,50.1,50.1,0,0,0,14.24-80.8c-2.27-2.28-5.81,1.25-3.54,3.54Z"/><path class="cls-3" d="M338.17,561.43c-13.14-13.23-17-33.85-9.05-50.83a45.14,45.14,0,0,1,45.21-25.93,45.21,45.21,0,0,1,27.59,13c2.28,2.27,5.82-1.26,3.53-3.53a50.09,50.09,0,0,0-27.05-14,51,51,0,0,0-29.52,4A50.1,50.1,0,0,0,334.63,565c2.27,2.29,5.81-1.25,3.54-3.54Z"/><path class="cls-3" d="M469.2,430.4c13.14,13.24,17,33.86,9.05,50.83a45.09,45.09,0,0,1-72.8,12.92c-2.28-2.27-5.82,1.26-3.53,3.53a50.09,50.09,0,0,0,27.05,14,50.08,50.08,0,0,0,43.77-84.77c-2.27-2.29-5.81,1.24-3.54,3.53Z"/><path class="cls-3" d="M472.74,426.87c-13.14-13.24-17-33.86-9.05-50.84a45.09,45.09,0,0,1,45.2-25.92,45.21,45.21,0,0,1,27.6,13c2.28,2.27,5.82-1.27,3.53-3.54a50.15,50.15,0,0,0-27-13.95A50.08,50.08,0,0,0,469.2,430.4c2.27,2.29,5.81-1.25,3.54-3.53Z"/><path class="cls-3" d="M603.77,295.83c13.13,13.24,17,33.86,9.05,50.84a45.15,45.15,0,0,1-45.21,25.92,45.18,45.18,0,0,1-27.59-13c-2.29-2.27-5.82,1.27-3.53,3.54a50.11,50.11,0,0,0,27,13.95A50.07,50.07,0,0,0,607.3,292.3c-2.27-2.29-5.8,1.25-3.53,3.53Z"/><path class="cls-3" d="M607.3,292.3c-13.13-13.24-17-33.86-9-50.84a45.09,45.09,0,0,1,45.2-25.92,45.15,45.15,0,0,1,27.59,13c2.29,2.27,5.83-1.27,3.54-3.54a50.14,50.14,0,0,0-27.06-13.95,50.07,50.07,0,0,0-43.76,84.77c2.27,2.29,5.8-1.25,3.53-3.53Z"/><path class="cls-3" d="M13.37,707.62c-13.13-13.23-17-33.85-9-50.83a45.14,45.14,0,0,1,45.21-25.93,45.18,45.18,0,0,1,27.59,13c2.29,2.27,5.82-1.26,3.53-3.53a50.06,50.06,0,0,0-27.05-14,51,51,0,0,0-29.52,4,50.09,50.09,0,0,0-14.24,80.8c2.27,2.29,5.8-1.25,3.53-3.54Z"/><path class="cls-3" d="M144.4,576.59c13.14,13.24,17,33.86,9,50.83a45.09,45.09,0,0,1-72.8,12.92c-2.28-2.27-5.82,1.26-3.53,3.53a50.09,50.09,0,0,0,27.05,14,50.08,50.08,0,0,0,43.77-84.77c-2.27-2.29-5.81,1.24-3.54,3.53Z"/><path class="cls-3" d="M147.94,573.06c-13.14-13.24-17-33.86-9.05-50.84A45.11,45.11,0,0,1,184.1,496.3a45.21,45.21,0,0,1,27.59,13c2.28,2.27,5.82-1.27,3.53-3.54a50.11,50.11,0,0,0-27.05-13.95,50.08,50.08,0,0,0-43.77,84.77c2.27,2.29,5.81-1.25,3.54-3.53Z"/><path class="cls-3" d="M279,442c13.14,13.24,17,33.86,9,50.84a45.11,45.11,0,0,1-45.21,25.92,45.21,45.21,0,0,1-27.59-13c-2.28-2.27-5.82,1.27-3.53,3.54a50.15,50.15,0,0,0,27.05,13.95,50.08,50.08,0,0,0,43.77-84.77c-2.27-2.29-5.81,1.25-3.54,3.53Z"/><path class="cls-3" d="M282.51,438.49c-13.14-13.24-17-33.86-9.05-50.84a45.09,45.09,0,0,1,72.8-12.91c2.28,2.27,5.82-1.27,3.53-3.54a50.15,50.15,0,0,0-27.05-13.95A50.08,50.08,0,0,0,279,442c2.27,2.29,5.81-1.25,3.54-3.53Z"/><path class="cls-3" d="M413.54,307.45c13.13,13.24,17,33.86,9,50.84a45.11,45.11,0,0,1-45.21,25.92,45.18,45.18,0,0,1-27.59-13c-2.29-2.27-5.82,1.27-3.53,3.54a50.11,50.11,0,0,0,27.05,13.95,50.08,50.08,0,0,0,43.77-84.77c-2.27-2.29-5.81,1.25-3.54,3.53Z"/><path class="cls-3" d="M417.08,303.92c-13.14-13.24-17-33.86-9.05-50.83a45.08,45.08,0,0,1,72.79-12.92c2.29,2.27,5.83-1.26,3.54-3.53a50.09,50.09,0,0,0-27.06-14,50.07,50.07,0,0,0-43.76,84.77c2.27,2.29,5.81-1.24,3.54-3.53Z"/><path class="cls-3" d="M548.11,172.89c13.13,13.23,17,33.85,9,50.83A45.12,45.12,0,0,1,512,249.65a45.18,45.18,0,0,1-27.59-13c-2.29-2.27-5.82,1.26-3.54,3.53a50.09,50.09,0,0,0,27.06,14,51,51,0,0,0,29.52-4,50.09,50.09,0,0,0,14.24-80.8c-2.27-2.29-5.8,1.25-3.53,3.54Z"/><path class="cls-3" d="M551.64,169.35c-13.13-13.23-17-33.86-9-50.83a45.12,45.12,0,0,1,45.2-25.93,45.15,45.15,0,0,1,27.59,13c2.29,2.27,5.83-1.26,3.54-3.53a50.09,50.09,0,0,0-27.06-14,51,51,0,0,0-29.52,4,50.09,50.09,0,0,0-14.24,80.8c2.27,2.28,5.8-1.25,3.53-3.54Z"/><path class="cls-3" d="M682.68,38.32c13.13,13.23,17,33.86,9,50.83a45.12,45.12,0,0,1-45.2,25.93,45.15,45.15,0,0,1-27.59-13c-2.29-2.27-5.83,1.26-3.54,3.53a50.09,50.09,0,0,0,27.06,14,51,51,0,0,0,29.52-4,50.1,50.1,0,0,0,14.24-80.8c-2.27-2.28-5.8,1.25-3.53,3.54Z"/><path class="cls-3" d="M-42.29,584.68c-13.14-13.24-17-33.86-9.05-50.84a45.65,45.65,0,0,1,19-20.43,45.46,45.46,0,0,1,26.21-5.49,45.21,45.21,0,0,1,27.59,13c2.28,2.27,5.82-1.27,3.53-3.54a50.11,50.11,0,0,0-27-13.95,50.87,50.87,0,0,0-29.52,4,50.42,50.42,0,0,0-28.69,50,50.6,50.6,0,0,0,14.44,30.78c2.27,2.29,5.81-1.24,3.54-3.53Z"/><path class="cls-3" d="M88.74,453.65c13.14,13.23,17,33.85,9.05,50.83A45.11,45.11,0,0,1,52.58,530.4a45.21,45.21,0,0,1-27.59-13c-2.28-2.27-5.82,1.27-3.53,3.54a50.23,50.23,0,0,0,27.05,14,51,51,0,0,0,29.52-4,50.1,50.1,0,0,0,14.25-80.8c-2.27-2.29-5.81,1.25-3.54,3.54Z"/><path class="cls-3" d="M92.28,450.11c-13.14-13.23-17-33.86-9-50.83A45.09,45.09,0,0,1,156,386.36c2.28,2.27,5.82-1.26,3.53-3.53a50.09,50.09,0,0,0-27.05-14,50.08,50.08,0,0,0-43.77,84.78c2.27,2.28,5.81-1.25,3.54-3.54Z"/><path class="cls-3" d="M223.31,319.08c13.13,13.23,17,33.85,9.05,50.83a45.14,45.14,0,0,1-45.21,25.93,45.18,45.18,0,0,1-27.59-13c-2.29-2.27-5.82,1.26-3.53,3.53a50.06,50.06,0,0,0,27.05,14,51,51,0,0,0,29.52-4,50.1,50.1,0,0,0,14.25-80.8c-2.27-2.29-5.81,1.25-3.54,3.54Z"/><path class="cls-3" d="M226.85,315.54c-13.14-13.23-17-33.86-9-50.83A45.12,45.12,0,0,1,263,238.78a45.15,45.15,0,0,1,27.59,13c2.29,2.27,5.83-1.26,3.54-3.53a50.09,50.09,0,0,0-27.06-14,51,51,0,0,0-29.52,4,50.1,50.1,0,0,0-14.24,80.8c2.27,2.28,5.81-1.25,3.54-3.54Z"/><path class="cls-3" d="M357.88,184.51c13.13,13.23,17,33.86,9,50.83a45.12,45.12,0,0,1-45.2,25.93,45.18,45.18,0,0,1-27.59-13c-2.29-2.27-5.82,1.26-3.54,3.53a50.09,50.09,0,0,0,27.06,14,51,51,0,0,0,29.52-4A50.09,50.09,0,0,0,361.41,181c-2.27-2.28-5.8,1.25-3.53,3.54Z"/><path class="cls-3" d="M361.41,181c-13.13-13.23-17-33.85-9-50.83a45.12,45.12,0,0,1,45.2-25.93,45.15,45.15,0,0,1,27.59,13c2.29,2.27,5.83-1.26,3.54-3.53a50.09,50.09,0,0,0-27.06-14,51,51,0,0,0-29.52,4,50.09,50.09,0,0,0-14.24,80.8c2.27,2.29,5.8-1.25,3.53-3.54Z"/><path class="cls-3" d="M492.45,49.94c13.13,13.24,17,33.86,9,50.83a45.08,45.08,0,0,1-72.79,12.92c-2.29-2.27-5.83,1.26-3.54,3.53a50.09,50.09,0,0,0,27.06,14,50,50,0,0,0,58.2-54A50.55,50.55,0,0,0,496,46.41c-2.27-2.29-5.8,1.24-3.53,3.53Z"/><path class="cls-3" d="M496,46.41c-13.13-13.24-17-33.86-9.05-50.84a45.11,45.11,0,0,1,45.21-25.92,45.18,45.18,0,0,1,27.59,13c2.29,2.27,5.82-1.27,3.54-3.54a50.17,50.17,0,0,0-27.06-13.95,50.87,50.87,0,0,0-29.52,4,50.44,50.44,0,0,0-28.69,50,50.56,50.56,0,0,0,14.45,30.78c2.27,2.29,5.8-1.25,3.53-3.53Z"/><path class="cls-3" d="M33.08,330.7c13.13,13.23,17,33.86,9.05,50.83a45.72,45.72,0,0,1-19,20.44,45.47,45.47,0,0,1-26.21,5.49,45.18,45.18,0,0,1-27.59-13c-2.29-2.27-5.82,1.26-3.53,3.53a50.06,50.06,0,0,0,27.05,14,51,51,0,0,0,29.52-4,50.43,50.43,0,0,0,28.69-50,50.63,50.63,0,0,0-14.44-30.79c-2.27-2.28-5.81,1.25-3.54,3.54Z"/><path class="cls-3" d="M36.62,327.16c-13.14-13.23-17-33.85-9-50.83a45.12,45.12,0,0,1,45.2-25.93,45.22,45.22,0,0,1,27.59,13c2.29,2.26,5.83-1.27,3.54-3.54a50.09,50.09,0,0,0-27.06-14,51,51,0,0,0-29.52,4,50.1,50.1,0,0,0-14.24,80.8c2.27,2.29,5.81-1.25,3.54-3.54Z"/><path class="cls-3" d="M167.65,196.13c13.13,13.24,17,33.86,9,50.84a45.15,45.15,0,0,1-45.21,25.92,45.18,45.18,0,0,1-27.59-13c-2.29-2.27-5.82,1.26-3.54,3.54a50.14,50.14,0,0,0,27.06,13.95,50.07,50.07,0,0,0,43.76-84.77c-2.27-2.29-5.8,1.24-3.53,3.53Z"/><path class="cls-3" d="M171.18,192.6c-13.13-13.24-17-33.86-9-50.84a45.09,45.09,0,0,1,45.2-25.92,45.15,45.15,0,0,1,27.59,13c2.29,2.27,5.83-1.27,3.54-3.54a50.14,50.14,0,0,0-27.06-14,50.07,50.07,0,0,0-43.76,84.77c2.27,2.29,5.8-1.25,3.53-3.53Z"/><path class="cls-3" d="M302.22,61.56c13.13,13.24,17,33.86,9,50.84a45.09,45.09,0,0,1-45.2,25.92,45.15,45.15,0,0,1-27.59-13c-2.29-2.27-5.83,1.27-3.54,3.54a50.14,50.14,0,0,0,27.06,14,50,50,0,0,0,58.2-54A50.55,50.55,0,0,0,305.75,58c-2.27-2.29-5.8,1.25-3.53,3.53Z"/><path class="cls-3" d="M305.75,58c-13.13-13.24-17-33.86-9.05-50.84a45.15,45.15,0,0,1,45.21-25.92,45.18,45.18,0,0,1,27.59,13C371.79-3.45,375.32-7,373-9.26A50.17,50.17,0,0,0,346-23.21a50.87,50.87,0,0,0-29.52,4,50.42,50.42,0,0,0-28.69,50,50.56,50.56,0,0,0,14.45,30.78c2.27,2.29,5.8-1.24,3.53-3.53Z"/><path class="cls-3" d="M436.78-73c13.14,13.23,17,33.85,9.05,50.83a45.7,45.7,0,0,1-19,20.44,45.48,45.48,0,0,1-26.21,5.48A45.15,45.15,0,0,1,373-9.26c-2.29-2.27-5.83,1.27-3.54,3.54a50.22,50.22,0,0,0,27.06,14,51,51,0,0,0,29.52-4,50.43,50.43,0,0,0,28.68-50,50.6,50.6,0,0,0-14.44-30.78c-2.27-2.29-5.81,1.25-3.54,3.54Z"/><path class="cls-3" d="M-19,204.22c-13.13-13.24-17-33.86-9-50.84A45.57,45.57,0,0,1-9.1,133a45.47,45.47,0,0,1,26.21-5.49,45.15,45.15,0,0,1,27.59,13c2.29,2.27,5.83-1.27,3.54-3.54a50.14,50.14,0,0,0-27.06-14,50.88,50.88,0,0,0-29.52,4A50.42,50.42,0,0,0-37,177a50.62,50.62,0,0,0,14.45,30.78c2.27,2.29,5.8-1.24,3.53-3.53Z"/><path class="cls-3" d="M112,73.19C125.12,86.42,129,107,121,124a45.09,45.09,0,0,1-45.2,25.92,45.15,45.15,0,0,1-27.59-13c-2.29-2.27-5.83,1.27-3.54,3.54a50.22,50.22,0,0,0,27.06,14,51,51,0,0,0,29.52-4,50.1,50.1,0,0,0,14.24-80.8c-2.27-2.29-5.8,1.25-3.53,3.54Z"/><path class="cls-3" d="M115.52,69.65c-13.13-13.23-17-33.86-9-50.83A45.09,45.09,0,0,1,179.27,5.9c2.29,2.27,5.82-1.26,3.54-3.53a50.12,50.12,0,0,0-27.06-14,51,51,0,0,0-29.52,4,50.43,50.43,0,0,0-28.69,50A50.61,50.61,0,0,0,112,73.19c2.27,2.28,5.8-1.25,3.53-3.54Z"/><path class="cls-3" d="M246.55-61.38c13.14,13.23,17,33.85,9,50.83a45.7,45.7,0,0,1-19,20.44,45.49,45.49,0,0,1-26.21,5.49,45.15,45.15,0,0,1-27.59-13C180.52.1,177,3.63,179.27,5.9a50.09,50.09,0,0,0,27.06,14,51,51,0,0,0,29.52-4,50.41,50.41,0,0,0,28.68-50,50.63,50.63,0,0,0-14.44-30.79c-2.27-2.29-5.81,1.25-3.54,3.54Z"/><path class="cls-3" d="M56.32-49.76c13.14,13.23,17,33.86,9.05,50.83a45.6,45.6,0,0,1-19,20.44A45.49,45.49,0,0,1,20.17,27,45.15,45.15,0,0,1-7.42,14c-2.29-2.27-5.83,1.26-3.54,3.53a50.09,50.09,0,0,0,27.06,14,51,51,0,0,0,29.52-4,50.4,50.4,0,0,0,28.68-50A50.66,50.66,0,0,0,59.86-53.3c-2.27-2.28-5.81,1.25-3.54,3.54Z"/></g></svg>